#!OML:ASF F:\VICON\USERDATA\INSTALL\Justin_Nancy\Justin_Nancy.ASF
:FULLY-SPECIFIED
:DEGREES
224
root 9.62333 17.3671 8.40818 236.305 82.4786 235.71
lowerback 7.55186 -1.08764 1.49397
upperback 0.643332 -1.03638 4.66231
thorax -3.5135 -0.458616 4.11075
lowerneck -18.7252 -4.08995 -10.8835
upperneck 22.8974 -3.60403 5.26639
head 10.7937 -1.892 3.19823
rclavicle 1.65488e-014 -2.38542e-014
rhumerus -35.9941 -14.5418 -74.0298
rradius 29.4726
rwrist 5.72481
rhand -18.4684 10.4885
rfingers 7.12502
rthumb 7.81824 -19.3469
lclavicle 1.65488e-014 -2.38542e-014
lhumerus -31.432 6.04109 89.5056
lradius 29.2037
lwrist 0.100074
lhand -18.4544 26.6129
lfingers 7.12502
lthumb 7.83175 56.4478
rfemur -19.8406 5.3088 23.569
rtibia 25.5394
rfoot -4.14084 -3.59348
rtoes 2.84667
lfemur -1.32741 -8.89391 -16.5743
ltibia 54.8114
lfoot 28.76 -14.5896
ltoes -0.258163
225
root 9.8359 17.4035 8.46693 238.094 81.6951 237.519
lowerback 7.48734 -1.13609 2.35248
upperback 0.657204 -1.0097 4.86588
thorax -3.47733 -0.45013 3.83399
lowerneck -18.8386 -4.27386 -11.1505
upperneck 22.9384 -3.86251 5.61336
head 10.8679 -1.99111 3.33082
rclavicle 1.68967e-015 -3.02153e-014
rhumerus -35.7287 -13.0522 -74.7519
rradius 29.7722
rwrist 3.65334
rhand -19.5191 10.1164
rfingers 7.12502
rthumb 6.80402 -19.7543
lclavicle 1.68967e-015 -3.02153e-014
lhumerus -31.2037 5.20614 89.8443
lradius 29.0665
lwrist -0.315347
lhand -17.9284 26.6745
lfingers 7.12502
lthumb 8.33941 56.4899
rfemur -18.3 5.81158 24.7558
rtibia 24.2278
rfoot -4.04262 -4.31154
rtoes 3.63015
lfemur -3.47675 -8.6076 -15.3021
ltibia 57.5415
lfoot 28.0602 -14.7422
ltoes 2.0367
226
root 10.0533 17.4261 8.51677 239.01 81.5209 238.603
lowerback 7.4791 -0.841907 2.70917
upperback 0.664183 -0.596199 4.71957
thorax -3.491 -0.25144 3.43567
lowerneck -18.7183 -4.59401 -11.0979
upperneck 23.1421 -4.50502 6.21222
head 10.9938 -2.20716 3.44989
rclavicle 6.70898e-015 4.25399e-014
rhumerus -35.907 -12.9566 -74.9711
rradius 29.9897
rwrist 3.28497
rhand -20.0928 10.0154
rfingers 7.12502
rthumb 6.25022 -19.8724
lclavicle 6.70898e-015 4.25399e-014
lhumerus -31.0498 4.12406 89.9939
lradius 28.8455
lwrist -0.978372
lhand -17.9391 26.7916
lfingers 7.12502
lthumb 8.32911 56.6074
rfemur -16.9498 6.12143 25.3623
rtibia 23.5456
rfoot -4.47045 -4.4954
rtoes 3.53808
lfemur -5.28161 -8.08548 -14.8601
ltibia 60.0142
lfoot 25.7328 -14.6817
ltoes 1.14484
227
root 10.2719 17.4498 8.57565 239.346 81.5772 239.07
lowerback 7.46032 -0.455106 2.53723
upperback 0.656406 -0.105401 4.61064
thorax -3.50726 -0.00789051 3.36713
lowerneck -18.5573 -4.74372 -10.9784
upperneck 23.3395 -4.87947 6.62096
head 11.08 -2.31681 3.52971
rclavicle 1.35174e-014 -2.90226e-014
rhumerus -36.077 -13.8342 -74.5305
rradius 30.0083
rwrist 4.87776
rhand -19.5747 10.3769
rfingers 7.12502
rthumb 6.75042 -19.4955
lclavicle 1.35174e-014 -2.90226e-014
lhumerus -30.8587 3.86331 89.964
lradius 28.6297
lwrist -2.12656
lhand -17.6595 26.1015
lfingers 7.12502
lthumb 8.59897 55.9063
rfemur -15.7527 6.4291 25.7309
rtibia 23.1171
rfoot -5.00874 -4.65163
rtoes 3.19755
lfemur -7.00842 -7.55441 -14.677
ltibia 62.2085
lfoot 22.4209 -14.3013
ltoes -0.825636
228
root 10.4357 17.4721 8.45092 241.85 82.4795 241.599
lowerback 7.98256 -0.0894869 4.38407
upperback 0.483407 0.524599 3.64743
thorax -3.97995 0.253992 1.26127
lowerneck -17.9022 -4.81932 -10.3612
upperneck 22.8385 -5.20413 6.52157
head 10.7773 -2.42844 3.33566
rclavicle -4.77083e-015 1.39149e-014
rhumerus -36.151 -14.3617 -74.5833
rradius 30.0088
rwrist 5.86324
rhand -19.0416 10.7997
rfingers 7.12502
rthumb 7.26502 -19.0556
lclavicle -4.77083e-015 1.39149e-014
lhumerus -30.8351 2.92776 89.7837
lradius 28.6424
lwrist -2.94603
lhand -16.8445 25.3378
lfingers 7.12502
lthumb 9.38543 55.1088
rfemur -15.0291 5.32859 24.7729
rtibia 22.7384
rfoot -5.45961 -2.66012
rtoes 4.65072
lfemur -8.98973 -7.24805 -16.3662
ltibia 64.3539
lfoot 19.2559 -11.8669
ltoes -0.997887
229
root 10.6544 17.5052 8.50334 242.441 82.3611 242.443
lowerback 8.08547 0.169286 4.5709
upperback 0.476409 0.877615 3.41437
thorax -4.03469 0.420003 0.874111
lowerneck -17.1171 -4.93849 -9.58921
upperneck 22.2077 -5.61491 6.3614
head 10.4043 -2.57934 3.085
rclavicle 9.01985e-015 2.46493e-014
rhumerus -36.2646 -14.1783 -75.0501
rradius 30.2595
rwrist 5.69468
rhand -19.0483 11.2559
rfingers 7.12502
rthumb 7.25851 -18.5996
lclavicle 9.01985e-015 2.46493e-014
lhumerus -30.9729 1.71252 89.5906
lradius 28.8196
lwrist -3.41585
lhand -16.0838 25.0013
lfingers 7.12502
lthumb 10.1193 54.7379
rfemur -13.6902 5.44349 25.2469
rtibia 22.3026
rfoot -6.06678 -2.68001
rtoes 6.66483
lfemur -10.5323 -6.75414 -15.9712
ltibia 66.1179
lfoot 16.0108 -11.0181
ltoes 0.720596
230
root 10.8641 17.5226 8.56169 244.795 81.9367 244.924
lowerback 8.15094 0.509401 5.00991
upperback 0.440476 1.37753 3.38207
thorax -4.08974 0.658582 0.537897
lowerneck -16.9646 -5.06344 -9.20887
upperneck 22.3863 -5.96238 6.56595
head 10.4644 -2.67993 3.04953
rclavicle 2.45996e-015 -2.70347e-014
rhumerus -36.2945 -14.0212 -75.3056
rradius 30.4309
rwrist 5.25685
rhand -19.2498 11.3006
rfingers 7.12502
rthumb 7.06407 -18.5615
lclavicle 2.45996e-015 -2.70347e-014
lhumerus -30.9803 0.881977 89.5461
lradius 28.8702
lwrist -4.02278
lhand -15.6386 24.7503
lfingers 7.12502
lthumb 10.5488 54.4655
rfemur -12.5805 5.48028 26.244
rtibia 21.9001
rfoot -6.51102 -2.80177
rtoes 5.86983
lfemur -12.2361 -5.95411 -15.1313
ltibia 67.6792
lfoot 12.6173 -11.0133
ltoes -1.03541
231
root 11.0691 17.5359 8.63188 245.584 81.8158 245.684
lowerback 8.08908 0.655052 4.69534
upperback 0.437047 1.55382 3.61965
thorax -4.06904 0.756653 0.941287
lowerneck -17.0476 -5.08155 -9.43419
upperneck 22.6206 -5.95308 6.6961
head 10.5774 -2.67583 3.1386
rclavicle 1.93815e-015 -5.1684e-015
rhumerus -35.8377 -12.7332 -75.6879
rradius 30.6217
rwrist 3.66593
rhand -19.9946 11.1834
rfingers 7.12502
rthumb 6.34503 -18.7016
lclavicle 1.93815e-015 -5.1684e-015
lhumerus -30.8609 1.43305 89.5957
lradius 28.8011
lwrist -4.94113
lhand -15.2299 24.2579
lfingers 7.12502
lthumb 10.943 53.9527
rfemur -11.6528 5.54467 26.859
rtibia 21.5106
rfoot -6.82092 -3.11184
rtoes 5.75425
lfemur -14.0982 -4.90582 -14.6042
ltibia 68.9002
lfoot 9.8915 -11.025
ltoes -2.45541
232
root 11.2689 17.5407 8.69765 245.72 81.9942 245.805
lowerback 8.04175 0.594917 4.0021
upperback 0.472683 1.42695 3.95839
thorax -4.03275 0.713595 1.69658
lowerneck -17.0266 -4.9698 -10.0836
upperneck 22.6283 -5.62728 6.75598
head 10.5707 -2.57755 3.31805
rclavicle -1.71452e-015 -1.55052e-014
rhumerus -35.1659 -10.7665 -76.0716
rradius 30.8733
rwrist 2.39102
rhand -20.5875 11.2625
rfingers 7.12502
rthumb 5.77262 -18.6389
lclavicle -1.71452e-015 -1.55052e-014
lhumerus -30.9076 2.16698 89.7676
lradius 29.0273
lwrist -4.91515
lhand -15.561 25.1306
lfingers 7.12502
lthumb 10.6236 54.8421
rfemur -10.8068 5.63557 27.1298
rtibia 21.2995
rfoot -7.09598 -3.47613
rtoes 5.22851
lfemur -15.9271 -3.86856 -14.4813
ltibia 69.8976
lfoot 7.6373 -10.6827
ltoes -2.51171
233
root 11.4738 17.5431 8.75507 245.962 82.0091 246.01
lowerback 7.98817 0.499172 3.75975
upperback 0.411916 1.2871 4.11748
thorax -4.0749 0.650767 2.01473
lowerneck -16.831 -4.89246 -10.8116
upperneck 22.6447 -5.42396 7.12633
head 10.555 -2.50716 3.6084
rclavicle 1.14798e-014 4.37326e-014
rhumerus -34.709 -9.668 -76.1875
rradius 31.0123
rwrist 3.08288
rhand -19.6686 11.4334
rfingers 7.12502
rthumb 6.65979 -18.4419
lclavicle 1.14798e-014 4.37326e-014
lhumerus -31.2157 2.54644 89.7296
lradius 29.2917
lwrist -4.18943
lhand -16.6625 25.7378
lfingers 7.12502
lthumb 9.56097 55.5009
rfemur -10.1454 5.7176 27.5647
rtibia 21.4098
rfoot -7.69142 -3.83709
rtoes 4.38085
lfemur -17.6689 -3.01935 -14.2892
ltibia 70.6285
lfoot 5.28465 -9.97635
ltoes -4.29307
234
root 11.6761 17.5435 8.80728 246.752 82.0926 246.774
lowerback 7.98181 0.553029 3.70257
upperback 0.382582 1.34753 4.03774
thorax -4.10144 0.678992 1.9568
lowerneck -16.7366 -4.88844 -11.0377
upperneck 22.6359 -5.43392 7.40175
head 10.5501 -2.5003 3.74682
rclavicle 5.24295e-015 -9.14409e-015
rhumerus -34.2977 -9.20011 -76.372
rradius 31.1235
rwrist 3.99809
rhand -18.7704 11.2413
rfingers 7.12502
rthumb 7.5268 -18.6048
lclavicle 5.24295e-015 -9.14409e-015
lhumerus -31.3892 3.00768 89.4216
lradius 29.4393
lwrist -4.02256
lhand -16.4284 25.8109
lfingers 7.12502
lthumb 9.78689 55.5635
rfemur -9.5694 6.05151 27.938
rtibia 21.6427
rfoot -8.34927 -4.3954
rtoes 4.85593
lfemur -19.3662 -1.98369 -14.2493
ltibia 71.1403
lfoot 3.18775 -9.25296
ltoes -7.2358
235
root 11.8724 17.542 8.86507 246.469 82.8643 246.569
lowerback 8.17749 0.738399 2.84445
upperback 0.370864 1.50199 3.77978
thorax -4.23763 0.762176 2.14958
lowerneck -16.662 -4.78864 -10.7007
upperneck 22.6105 -5.35848 7.26593
head 10.5029 -2.45271 3.65224
rclavicle -5.49143e-015 1.78906e-014
rhumerus -33.9712 -8.49369 -76.6897
rradius 31.4372
rwrist 3.83185
rhand -18.5464 10.9912
rfingers 7.12502
rthumb 7.74294 -18.847
lclavicle -5.49143e-015 1.78906e-014
lhumerus -31.5717 3.15353 89.1089
lradius 29.6633
lwrist -3.46591
lhand -16.0175 25.9203
lfingers 7.12502
lthumb 10.1833 55.6539
rfemur -8.97184 6.6266 27.5621
rtibia 22.0274
rfoot -9.02482 -5.04178
rtoes 5.77624
lfemur -20.8677 -1.00094 -15.1032
ltibia 71.3525
lfoot 1.70355 -8.29306
ltoes -7.24894
236
root 12.0629 17.5363 8.86512 248.623 82.9298 248.795
lowerback 8.3396 0.738858 3.42984
upperback 0.387873 1.56074 3.65752
thorax -4.29346 0.778023 1.68463
lowerneck -16.4631 -4.66515 -10.3757
upperneck 22.3166 -5.22051 6.99646
head 10.3256 -2.39675 3.51564
rclavicle -2.4376e-014 -3.37934e-014
rhumerus -33.392 -7.76196 -76.988
rradius 31.6204
rwrist 3.58806
rhand -18.5361 10.8727
rfingers 7.12502
rthumb 7.75292 -18.9651
lclavicle -2.4376e-014 -3.37934e-014
lhumerus -31.7087 3.2192 88.9383
lradius 29.9318
lwrist -2.12546
lhand -16.2317 26.1971
lfingers 7.12502
lthumb 9.97659 55.9407
rfemur -8.463 6.35221 27.8003
rtibia 22.4691
rfoot -9.76245 -4.98365
rtoes 3.44333
lfemur -22.3693 -0.603857 -15.4307
ltibia 71.4466
lfoot 0.503986 -6.82368
ltoes -4.53733
237
root 12.2685 17.5288 8.93922 247.924 83.312 248.12
lowerback 8.24941 0.861396 2.62501
upperback 0.490899 1.62939 3.59451
thorax -4.15499 0.825981 2.06405
lowerneck -16.018 -4.76986 -9.74411
upperneck 21.4896 -5.40823 6.34615
head 9.92437 -2.51529 3.13897
rclavicle -1.06847e-015 -4.37326e-014
rhumerus -32.7617 -7.50625 -77.2535
rradius 31.7483
rwrist 3.6053
rhand -18.6869 11.0358
rfingers 7.12502
rthumb 7.60733 -18.8074
lclavicle -1.06847e-015 -4.37326e-014
lhumerus -31.7466 3.28257 88.9457
lradius 30.0769
lwrist -0.89557
lhand -17.2132 26.0335
lfingers 7.12502
lthumb 9.02963 55.8202
rfemur -7.9361 6.82496 27.9112
rtibia 23.0937
rfoot -10.5641 -5.84705
rtoes 1.35214
lfemur -23.7452 0.230791 -15.7038
ltibia 71.2311
lfoot -1.01097 -5.71495
ltoes -4.82815
